<mxfile host="app.diagrams.net" modified="2021-02-03T16:48:09.851Z" agent="5.0 (Macintosh; Intel Mac OS X 10_15_7) AppleWebKit/537.36 (KHTML, like Gecko) Chrome/88.0.4324.96 Safari/537.36" etag="3XJaVOnje8QZpm7qMCwO" version="14.2.9" type="github">
  <diagram name="Page-1" id="90a13364-a465-7bf4-72fc-28e22215d7a0">
    <mxGraphModel dx="1882" dy="1132" grid="1" gridSize="10" guides="1" tooltips="1" connect="1" arrows="1" fold="1" page="1" pageScale="1.5" pageWidth="1169" pageHeight="826" background="#ffffff" math="0" shadow="0">
      <root>
        <mxCell id="0" style=";html=1;" />
        <mxCell id="1" style=";html=1;" parent="0" />
        <mxCell id="SNFwWFjBnCGHissZ7xn_-1" value="" style="rounded=1;whiteSpace=wrap;html=1;strokeWidth=2;fillWeight=4;hachureGap=8;hachureAngle=45;fillColor=#1ba1e2;sketch=1;" vertex="1" parent="1">
          <mxGeometry x="360" y="370" width="120" height="60" as="geometry" />
        </mxCell>
        <mxCell id="SNFwWFjBnCGHissZ7xn_-2" value="" style="ellipse;whiteSpace=wrap;html=1;strokeWidth=2;fillWeight=2;hachureGap=8;fillColor=#990000;fillStyle=dots;sketch=1;" vertex="1" parent="1">
          <mxGeometry x="817" y="370" width="120" height="60" as="geometry" />
        </mxCell>
        <mxCell id="SNFwWFjBnCGHissZ7xn_-3" value="" style="rhombus;whiteSpace=wrap;html=1;strokeWidth=2;fillWeight=-1;hachureGap=8;fillStyle=cross-hatch;fillColor=#006600;sketch=1;" vertex="1" parent="1">
          <mxGeometry x="1250" y="370" width="120" height="60" as="geometry" />
        </mxCell>
        <mxCell id="SNFwWFjBnCGHissZ7xn_-5" value="&lt;b&gt;&lt;font style=&quot;font-size: 24px&quot;&gt;iam-test.dhs.tn.gov&lt;/font&gt;&lt;/b&gt;" style="text;html=1;strokeColor=none;fillColor=none;align=center;verticalAlign=middle;whiteSpace=wrap;rounded=0;" vertex="1" parent="1">
          <mxGeometry x="290" y="320" width="280" height="20" as="geometry" />
        </mxCell>
        <mxCell id="SNFwWFjBnCGHissZ7xn_-6" value="&lt;b&gt;&lt;font style=&quot;font-size: 24px&quot;&gt;iam-uat.dhs.tn.gov&lt;/font&gt;&lt;/b&gt;" style="text;html=1;strokeColor=none;fillColor=none;align=center;verticalAlign=middle;whiteSpace=wrap;rounded=0;" vertex="1" parent="1">
          <mxGeometry x="750" y="320" width="253" height="20" as="geometry" />
        </mxCell>
        <mxCell id="SNFwWFjBnCGHissZ7xn_-7" value="&lt;b&gt;&lt;font style=&quot;font-size: 24px&quot;&gt;iam.dhs.tn.gov&lt;/font&gt;&lt;/b&gt;" style="text;html=1;strokeColor=none;fillColor=none;align=center;verticalAlign=middle;whiteSpace=wrap;rounded=0;" vertex="1" parent="1">
          <mxGeometry x="1240" y="330" width="160" height="20" as="geometry" />
        </mxCell>
        <mxCell id="SNFwWFjBnCGHissZ7xn_-8" value="local" style="shape=ext;double=1;rounded=1;whiteSpace=wrap;html=1;" vertex="1" parent="1">
          <mxGeometry x="360" y="480" width="120" height="80" as="geometry" />
        </mxCell>
        <mxCell id="SNFwWFjBnCGHissZ7xn_-9" value="PROD" style="shape=ext;double=1;rounded=1;whiteSpace=wrap;html=1;" vertex="1" parent="1">
          <mxGeometry x="1260" y="480" width="120" height="80" as="geometry" />
        </mxCell>
        <mxCell id="SNFwWFjBnCGHissZ7xn_-13" value="DEV" style="shape=ext;double=1;rounded=1;whiteSpace=wrap;html=1;" vertex="1" parent="1">
          <mxGeometry x="590" y="470" width="120" height="80" as="geometry" />
        </mxCell>
        <mxCell id="SNFwWFjBnCGHissZ7xn_-14" value="TRN" style="shape=ext;double=1;rounded=1;whiteSpace=wrap;html=1;" vertex="1" parent="1">
          <mxGeometry x="1030" y="470" width="120" height="80" as="geometry" />
        </mxCell>
        <mxCell id="SNFwWFjBnCGHissZ7xn_-15" value="UAT" style="shape=ext;double=1;rounded=1;whiteSpace=wrap;html=1;" vertex="1" parent="1">
          <mxGeometry x="950" y="560" width="120" height="80" as="geometry" />
        </mxCell>
        <mxCell id="SNFwWFjBnCGHissZ7xn_-16" value="SIT" style="shape=ext;double=1;rounded=1;whiteSpace=wrap;html=1;" vertex="1" parent="1">
          <mxGeometry x="820" y="560" width="120" height="80" as="geometry" />
        </mxCell>
        <mxCell id="SNFwWFjBnCGHissZ7xn_-17" value="QA" style="shape=ext;double=1;rounded=1;whiteSpace=wrap;html=1;" vertex="1" parent="1">
          <mxGeometry x="690" y="560" width="120" height="80" as="geometry" />
        </mxCell>
        <mxCell id="SNFwWFjBnCGHissZ7xn_-18" value="" style="endArrow=none;html=1;entryX=0.5;entryY=1;entryDx=0;entryDy=0;exitX=0.5;exitY=0;exitDx=0;exitDy=0;" edge="1" parent="1" source="SNFwWFjBnCGHissZ7xn_-8" target="SNFwWFjBnCGHissZ7xn_-1">
          <mxGeometry width="50" height="50" relative="1" as="geometry">
            <mxPoint x="850" y="590" as="sourcePoint" />
            <mxPoint x="900" y="540" as="targetPoint" />
          </mxGeometry>
        </mxCell>
        <mxCell id="SNFwWFjBnCGHissZ7xn_-19" value="" style="endArrow=none;html=1;entryX=0.5;entryY=1;entryDx=0;entryDy=0;exitX=0.5;exitY=0;exitDx=0;exitDy=0;" edge="1" parent="1">
          <mxGeometry width="50" height="50" relative="1" as="geometry">
            <mxPoint x="1309.5" y="480" as="sourcePoint" />
            <mxPoint x="1309.5" y="430" as="targetPoint" />
          </mxGeometry>
        </mxCell>
        <mxCell id="SNFwWFjBnCGHissZ7xn_-20" value="" style="endArrow=none;html=1;" edge="1" parent="1" source="SNFwWFjBnCGHissZ7xn_-14" target="SNFwWFjBnCGHissZ7xn_-2">
          <mxGeometry width="50" height="50" relative="1" as="geometry">
            <mxPoint x="440" y="500" as="sourcePoint" />
            <mxPoint x="440" y="450" as="targetPoint" />
          </mxGeometry>
        </mxCell>
        <mxCell id="SNFwWFjBnCGHissZ7xn_-21" value="" style="endArrow=none;html=1;entryX=0.5;entryY=1;entryDx=0;entryDy=0;" edge="1" parent="1" source="SNFwWFjBnCGHissZ7xn_-16" target="SNFwWFjBnCGHissZ7xn_-2">
          <mxGeometry width="50" height="50" relative="1" as="geometry">
            <mxPoint x="450" y="510" as="sourcePoint" />
            <mxPoint x="450" y="460" as="targetPoint" />
          </mxGeometry>
        </mxCell>
        <mxCell id="SNFwWFjBnCGHissZ7xn_-22" value="" style="endArrow=none;html=1;entryX=0.75;entryY=0.975;entryDx=0;entryDy=0;exitX=0.392;exitY=0.006;exitDx=0;exitDy=0;entryPerimeter=0;exitPerimeter=0;" edge="1" parent="1" source="SNFwWFjBnCGHissZ7xn_-15" target="SNFwWFjBnCGHissZ7xn_-2">
          <mxGeometry width="50" height="50" relative="1" as="geometry">
            <mxPoint x="940" y="480" as="sourcePoint" />
            <mxPoint x="940" y="430" as="targetPoint" />
          </mxGeometry>
        </mxCell>
        <mxCell id="SNFwWFjBnCGHissZ7xn_-23" value="" style="endArrow=none;html=1;entryX=0;entryY=1;entryDx=0;entryDy=0;exitX=0.625;exitY=0.006;exitDx=0;exitDy=0;exitPerimeter=0;" edge="1" parent="1" source="SNFwWFjBnCGHissZ7xn_-17" target="SNFwWFjBnCGHissZ7xn_-2">
          <mxGeometry width="50" height="50" relative="1" as="geometry">
            <mxPoint x="470" y="530" as="sourcePoint" />
            <mxPoint x="470" y="480" as="targetPoint" />
          </mxGeometry>
        </mxCell>
        <mxCell id="SNFwWFjBnCGHissZ7xn_-24" value="" style="endArrow=none;html=1;entryX=0.058;entryY=0.775;entryDx=0;entryDy=0;entryPerimeter=0;" edge="1" parent="1" source="SNFwWFjBnCGHissZ7xn_-13" target="SNFwWFjBnCGHissZ7xn_-2">
          <mxGeometry width="50" height="50" relative="1" as="geometry">
            <mxPoint x="480" y="540" as="sourcePoint" />
            <mxPoint x="480" y="490" as="targetPoint" />
          </mxGeometry>
        </mxCell>
        <mxCell id="SNFwWFjBnCGHissZ7xn_-27" value="tcses-config" style="label;whiteSpace=wrap;html=1;image=img/clipart/Gear_128x128.png" vertex="1" parent="1">
          <mxGeometry x="1140" y="720" width="140" height="60" as="geometry" />
        </mxCell>
        <mxCell id="SNFwWFjBnCGHissZ7xn_-28" value="RACF ID Credentials" style="text;html=1;strokeColor=none;fillColor=none;align=center;verticalAlign=middle;whiteSpace=wrap;rounded=0;" vertex="1" parent="1">
          <mxGeometry x="828.5" y="680" width="103" height="20" as="geometry" />
        </mxCell>
        <mxCell id="SNFwWFjBnCGHissZ7xn_-29" value="Sandbox Credentials" style="text;html=1;strokeColor=none;fillColor=none;align=center;verticalAlign=middle;whiteSpace=wrap;rounded=0;" vertex="1" parent="1">
          <mxGeometry x="368.5" y="590" width="103" height="20" as="geometry" />
        </mxCell>
        <mxCell id="SNFwWFjBnCGHissZ7xn_-30" value="&lt;font style=&quot;font-size: 48px&quot;&gt;TCSES Online FR Environememnts&lt;/font&gt;" style="text;html=1;strokeColor=none;fillColor=none;align=center;verticalAlign=middle;whiteSpace=wrap;rounded=0;" vertex="1" parent="1">
          <mxGeometry x="513" y="220" width="727" height="20" as="geometry" />
        </mxCell>
        <mxCell id="SNFwWFjBnCGHissZ7xn_-31" value="PERF" style="shape=ext;double=1;rounded=1;whiteSpace=wrap;html=1;" vertex="1" parent="1">
          <mxGeometry x="1030" y="380" width="120" height="80" as="geometry" />
        </mxCell>
        <mxCell id="SNFwWFjBnCGHissZ7xn_-32" value="" style="endArrow=none;html=1;entryX=0;entryY=0.5;entryDx=0;entryDy=0;" edge="1" parent="1" source="SNFwWFjBnCGHissZ7xn_-2" target="SNFwWFjBnCGHissZ7xn_-31">
          <mxGeometry width="50" height="50" relative="1" as="geometry">
            <mxPoint x="850" y="430" as="sourcePoint" />
            <mxPoint x="900" y="380" as="targetPoint" />
          </mxGeometry>
        </mxCell>
        <mxCell id="SNFwWFjBnCGHissZ7xn_-33" value="RACF ID Credentials" style="text;html=1;strokeColor=none;fillColor=none;align=center;verticalAlign=middle;whiteSpace=wrap;rounded=0;" vertex="1" parent="1">
          <mxGeometry x="1267" y="590" width="103" height="20" as="geometry" />
        </mxCell>
      </root>
    </mxGraphModel>
  </diagram>
</mxfile>
